<?xml version="1.0" encoding="UTF-8"?>
<svg xmlns="http://www.w3.org/2000/svg" xmlns:xlink="http://www.w3.org/1999/xlink" width="296px" height="296px" viewBox="0 0 296 296" version="1.1">
<g id="surface1">
<path style=" stroke:none;fill-rule:nonzero;fill:rgb(0%,0%,0%);fill-opacity:1;" d="M 131.71875 49.25 C 131.253906 49.386719 131.226562 49.578125 131.390625 51.335938 C 131.472656 52.429688 131.746094 54.292969 131.9375 55.5 C 132.515625 58.734375 132.953125 61.53125 133.226562 63.996094 C 133.636719 67.667969 134.105469 69.945312 134.488281 70.082031 C 134.679688 70.164062 135.667969 70.136719 136.652344 70.027344 L 138.460938 69.835938 L 138.296875 68.984375 C 138.214844 68.492188 137.996094 67.121094 137.859375 65.914062 C 137.722656 64.707031 137.421875 62.597656 137.203125 61.253906 C 136.378906 56.128906 135.96875 53.253906 135.777344 51.664062 C 135.503906 49.25 135.363281 49.058594 133.664062 49.085938 C 132.871094 49.113281 132.019531 49.167969 131.71875 49.25 Z M 131.71875 49.25 "/>
<path style=" stroke:none;fill-rule:nonzero;fill:rgb(0%,0%,0%);fill-opacity:1;" d="M 145.039062 54.347656 C 143.613281 54.925781 141.695312 56.570312 141.066406 57.691406 C 140.902344 57.992188 140.683594 58.679688 140.574219 59.199219 C 140.4375 59.722656 140.269531 60.515625 140.160156 60.925781 C 140.050781 61.363281 140.105469 62.160156 140.269531 62.707031 C 140.4375 63.285156 140.65625 64.078125 140.738281 64.515625 C 140.820312 64.929688 141.503906 65.941406 142.273438 66.738281 C 144.027344 68.601562 145.863281 69.339844 148.765625 69.339844 C 150.519531 69.339844 151.097656 69.203125 152.578125 68.492188 C 158.632812 65.53125 158.46875 57.226562 152.277344 54.402344 C 150.273438 53.472656 147.179688 53.472656 145.039062 54.347656 Z M 151.207031 58.160156 C 152.386719 59.417969 152.660156 60.078125 152.660156 61.53125 C 152.660156 62.980469 152.386719 63.640625 151.207031 64.875 C 150.4375 65.695312 150.21875 65.777344 148.65625 65.777344 C 147.371094 65.777344 146.820312 65.640625 146.246094 65.203125 C 145.285156 64.433594 144.4375 62.734375 144.4375 61.53125 C 144.4375 60.324219 145.285156 58.625 146.246094 57.855469 C 146.820312 57.417969 147.371094 57.28125 148.65625 57.28125 C 150.21875 57.28125 150.4375 57.363281 151.207031 58.160156 Z M 151.207031 58.160156 "/>
<path style=" stroke:none;fill-rule:nonzero;fill:rgb(0%,0%,0%);fill-opacity:1;" d="M 161.292969 55.554688 C 161.101562 56.707031 160.25 60.378906 159.648438 62.761719 C 159.238281 64.351562 158.523438 67.449219 157.730469 71.121094 C 157.457031 72.328125 157.152344 73.617188 157.042969 74 C 156.878906 74.601562 156.988281 74.710938 158.25 75.152344 C 160.964844 76.109375 161.019531 76.082031 162.03125 71.671875 L 162.609375 69.09375 L 163.867188 70.136719 C 165.566406 71.535156 166.71875 71.945312 168.828125 71.917969 C 171.078125 71.863281 172.363281 71.3125 174.007812 69.667969 C 176.367188 67.285156 177.078125 63.230469 175.625 60.433594 C 174.367188 57.992188 172.613281 56.789062 169.84375 56.433594 C 168.0625 56.210938 167.128906 56.292969 165.761719 56.871094 C 165.375 57.007812 165.292969 56.925781 165.347656 56.292969 C 165.402344 55.636719 165.265625 55.472656 164.445312 55.199219 C 163.921875 55.035156 163.019531 54.816406 162.472656 54.707031 C 161.457031 54.511719 161.457031 54.539062 161.292969 55.554688 Z M 169.050781 59.609375 C 170.859375 60.378906 172.117188 61.96875 172.117188 63.503906 C 172.117188 64.902344 170.886719 67.066406 169.679688 67.804688 C 168.363281 68.65625 167.953125 68.683594 166.472656 67.996094 C 165.320312 67.476562 164.117188 66.132812 163.757812 65.011719 C 163.484375 64.078125 164.308594 61.613281 165.183594 60.789062 C 165.925781 60.105469 167.378906 59.226562 167.816406 59.199219 C 167.925781 59.199219 168.472656 59.390625 169.050781 59.609375 Z M 169.050781 59.609375 "/>
<path style=" stroke:none;fill-rule:nonzero;fill:rgb(0%,0%,0%);fill-opacity:1;" d="M 119.578125 58.050781 C 116.179688 59.417969 114.507812 61.777344 114.507812 65.175781 C 114.507812 67.777344 114.917969 69.011719 116.261719 70.546875 C 118.070312 72.601562 119.140625 73.039062 122.238281 73.039062 C 124.976562 73.039062 126.15625 72.710938 128.265625 71.339844 C 129.363281 70.628906 130.597656 68.957031 130.320312 68.519531 C 130.238281 68.382812 129.664062 67.996094 129.0625 67.667969 C 127.855469 67.066406 127.910156 67.066406 126.402344 68.4375 C 125.445312 69.3125 124.046875 69.695312 122.320312 69.558594 C 121.113281 69.449219 120.675781 69.257812 119.960938 68.574219 L 119.113281 67.722656 L 119.933594 67.421875 C 120.375 67.285156 120.949219 67.011719 121.195312 66.875 C 121.46875 66.710938 121.964844 66.601562 122.292969 66.601562 C 122.648438 66.601562 123.277344 66.40625 123.71875 66.1875 C 124.128906 65.96875 124.703125 65.777344 124.949219 65.777344 C 125.195312 65.75 126.429688 65.394531 127.71875 64.984375 C 130.515625 64.078125 130.625 63.804688 129.335938 61.394531 C 128.457031 59.722656 127.5 58.84375 125.746094 58.019531 C 124.429688 57.417969 121.140625 57.417969 119.578125 58.050781 Z M 124.757812 61.558594 C 126.511719 62.761719 126.265625 62.980469 121.550781 64.351562 C 118.070312 65.394531 118.398438 65.394531 118.398438 64.269531 C 118.398438 61.421875 122.210938 59.804688 124.757812 61.558594 Z M 124.757812 61.558594 "/>
<path style=" stroke:none;fill-rule:nonzero;fill:rgb(0%,0%,0%);fill-opacity:1;" d="M 108.671875 62.105469 C 108.066406 62.488281 107.4375 62.871094 107.246094 62.980469 C 107 63.148438 107 64.214844 107.300781 67.832031 C 107.519531 70.410156 107.765625 72.902344 107.847656 73.371094 C 107.929688 73.863281 107.902344 74.273438 107.765625 74.273438 C 107.628906 74.273438 107 73.863281 106.394531 73.371094 C 105.792969 72.902344 103.875 71.367188 102.148438 70 L 99.050781 67.503906 L 97.214844 68.464844 C 96.199219 68.984375 95.378906 69.503906 95.378906 69.613281 C 95.378906 69.722656 96.089844 70.355469 96.96875 71.011719 C 97.816406 71.671875 99.214844 72.765625 100.035156 73.453125 C 100.859375 74.136719 101.875 74.933594 102.285156 75.234375 C 102.667969 75.535156 104.066406 76.605469 105.328125 77.617188 C 108.011719 79.78125 108.5625 79.894531 110.535156 78.660156 L 111.820312 77.835938 L 111.820312 75.78125 C 111.820312 74.683594 111.65625 72.355469 111.4375 70.65625 C 111.21875 68.957031 110.972656 66.519531 110.863281 65.230469 C 110.5625 61.007812 110.535156 60.980469 108.671875 62.105469 Z M 108.671875 62.105469 "/>
<path style=" stroke:none;fill-rule:nonzero;fill:rgb(0%,0%,0%);fill-opacity:1;" d="M 182.535156 62.1875 C 180.394531 62.871094 178.53125 64.625 177.519531 66.847656 C 176.832031 68.300781 176.695312 71.5625 177.269531 72.109375 C 177.4375 72.300781 177.601562 72.65625 177.601562 72.847656 C 177.601562 73.066406 178.039062 73.78125 178.558594 74.410156 C 180.863281 77.234375 185.4375 79.042969 187.90625 78.109375 C 188.5625 77.835938 188.617188 77.726562 188.480469 76.714844 C 188.261719 75.152344 187.90625 74.820312 186.261719 74.820312 C 184.289062 74.820312 182.148438 73.5625 181.410156 72 C 180.808594 70.628906 180.75 69.917969 181.273438 69.722656 C 181.464844 69.640625 183.710938 70.574219 186.207031 71.78125 C 188.726562 73.011719 191.085938 74 191.46875 74 C 191.960938 74 192.152344 73.808594 192.289062 73.234375 C 192.398438 72.820312 192.59375 72.355469 192.730469 72.191406 C 192.867188 72 193.03125 71.257812 193.113281 70.546875 C 193.46875 67.667969 191.46875 64.40625 188.425781 62.84375 C 186.972656 62.078125 183.875 61.75 182.535156 62.1875 Z M 187.6875 66.105469 C 188.644531 66.683594 189.386719 68.105469 189.386719 69.367188 C 189.386719 70.410156 189.136719 70.492188 187.851562 69.890625 C 184.148438 68.105469 182.644531 67.367188 182.449219 67.175781 C 182.148438 66.875 183.21875 65.777344 184.09375 65.503906 C 185.109375 65.175781 186.589844 65.421875 187.6875 66.105469 Z M 187.6875 66.105469 "/>
<path style=" stroke:none;fill-rule:nonzero;fill:rgb(0%,0%,0%);fill-opacity:1;" d="M 198.457031 69.695312 C 198.15625 70.054688 197.882812 70.464844 197.882812 70.628906 C 197.882812 70.765625 197.636719 71.121094 197.332031 71.394531 C 197.03125 71.671875 196.402344 72.519531 195.90625 73.289062 C 195.414062 74.054688 194.949219 74.738281 194.867188 74.820312 C 194.347656 75.234375 190.480469 80.878906 190.480469 81.207031 C 190.480469 81.675781 191.03125 82.167969 192.5625 83.125 L 193.6875 83.8125 L 195.851562 80.796875 C 199.308594 75.945312 200.59375 75.179688 203.089844 76.464844 C 203.691406 76.769531 204.320312 77.015625 204.515625 77.015625 C 204.898438 76.988281 206.652344 74.765625 206.652344 74.300781 C 206.652344 73.78125 205.171875 73.234375 203.308594 73.039062 C 202.265625 72.929688 201.445312 72.765625 201.445312 72.683594 C 201.445312 72.601562 201.636719 72.300781 201.882812 72.054688 C 202.320312 71.589844 202.292969 71.507812 201.527344 70.792969 C 201.0625 70.355469 200.320312 69.808594 199.882812 69.558594 C 199.085938 69.09375 199.03125 69.09375 198.457031 69.695312 Z M 198.457031 69.695312 "/>
<path style=" stroke:none;fill-rule:nonzero;fill:rgb(0%,0%,0%);fill-opacity:1;" d="M 88.992188 74.710938 C 87.429688 75.507812 85.703125 77.234375 84.878906 78.796875 C 84.085938 80.277344 84.03125 83.8125 84.796875 85.238281 C 85.757812 87.019531 86.9375 88.277344 88.363281 88.992188 C 89.539062 89.621094 90.089844 89.730469 91.953125 89.730469 C 93.789062 89.703125 94.390625 89.59375 95.625 88.964844 C 98.421875 87.511719 100.53125 85.019531 100.941406 82.605469 C 101.132812 81.648438 100.75 81.398438 98.996094 81.398438 C 98.28125 81.398438 98.007812 81.5625 97.597656 82.277344 C 95.953125 85.046875 94.582031 86.058594 92.417969 86.058594 C 90.828125 86.058594 90.226562 85.59375 90.71875 84.714844 C 90.882812 84.386719 91.128906 84.140625 91.265625 84.140625 C 91.429688 84.140625 92.5 83.292969 93.652344 82.277344 C 94.828125 81.234375 96.089844 80.167969 96.445312 79.863281 C 98.144531 78.523438 98.941406 77.753906 98.941406 77.5625 C 98.941406 77.125 96.554688 74.988281 95.515625 74.519531 C 93.816406 73.726562 90.691406 73.835938 88.992188 74.710938 Z M 93.320312 77.671875 C 93.84375 77.890625 94.28125 78.191406 94.28125 78.304688 C 94.28125 78.550781 92.226562 80.386719 89.867188 82.304688 C 88.746094 83.207031 88.554688 83.265625 88.25 82.90625 C 88.058594 82.660156 87.894531 81.921875 87.894531 81.234375 C 87.894531 79.261719 89.8125 77.371094 91.898438 77.316406 C 92.171875 77.289062 92.800781 77.480469 93.320312 77.671875 Z M 93.320312 77.671875 "/>
<path style=" stroke:none;fill-rule:nonzero;fill:rgb(0%,0%,0%);fill-opacity:1;" d="M 74.820312 85.15625 C 72.410156 85.648438 69.53125 87.757812 67.886719 90.226562 C 67.367188 91.019531 66.050781 92.855469 64.984375 94.28125 C 63.914062 95.707031 63.035156 97.023438 63.035156 97.214844 C 63.035156 97.40625 63.75 98.035156 64.625 98.667969 C 65.476562 99.269531 66.929688 100.3125 67.832031 100.996094 C 68.738281 101.652344 70.273438 102.777344 71.257812 103.464844 C 72.246094 104.175781 73.78125 105.300781 74.683594 105.957031 C 75.589844 106.613281 76.933594 107.574219 77.671875 108.09375 L 79.042969 109.054688 L 79.949219 107.765625 C 81.535156 105.492188 82.796875 103.765625 83.839844 102.367188 C 84.414062 101.597656 85.292969 100.121094 85.785156 99.078125 C 86.636719 97.378906 86.71875 96.914062 86.746094 94.828125 C 86.746094 92.855469 86.636719 92.253906 86.03125 90.992188 C 85.046875 88.9375 82.90625 86.773438 80.988281 85.894531 C 79.398438 85.183594 76.410156 84.824219 74.820312 85.15625 Z M 78.523438 89.730469 C 79.042969 89.949219 80.085938 90.71875 80.824219 91.402344 C 81.921875 92.445312 82.25 92.9375 82.496094 94.089844 C 82.933594 96.117188 82.46875 98.007812 81.042969 99.953125 C 80.414062 100.832031 79.671875 101.875 79.398438 102.285156 C 79.125 102.722656 78.769531 103.050781 78.578125 103.050781 C 78.414062 103.050781 77.289062 102.339844 76.136719 101.460938 C 74.960938 100.613281 72.820312 99.050781 71.394531 98.007812 C 69.945312 96.96875 68.710938 96.035156 68.65625 95.898438 C 68.464844 95.597656 70.738281 92.417969 72.164062 91.046875 C 72.820312 90.390625 73.726562 89.757812 74.164062 89.621094 C 75.425781 89.265625 77.480469 89.320312 78.523438 89.730469 Z M 78.523438 89.730469 "/>
<path style=" stroke:none;fill-rule:nonzero;fill:rgb(0%,0%,0%);fill-opacity:1;" d="M 205.664062 90.800781 C 204.84375 91.539062 204.679688 91.898438 204.679688 92.773438 C 204.679688 94.171875 205.910156 95.378906 207.308594 95.378906 C 208.761719 95.378906 209.941406 94.253906 209.941406 92.855469 C 209.941406 91.484375 209.585938 90.828125 208.570312 90.308594 C 207.390625 89.703125 206.761719 89.785156 205.664062 90.800781 Z M 205.664062 90.800781 "/>
<path style=" stroke:none;fill-rule:nonzero;fill:rgb(0%,0%,0%);fill-opacity:1;" d="M 226.304688 95.378906 C 224.6875 95.679688 223.316406 96.96875 222.710938 98.75 C 222.136719 100.421875 222.21875 101.105469 223.398438 105.300781 C 224.082031 107.65625 224.082031 109.410156 223.425781 109.984375 C 222.546875 110.78125 221.480469 110.5625 220.382812 109.410156 C 218.820312 107.738281 218.164062 106.148438 217.972656 103.492188 C 217.777344 100.832031 217.917969 100.941406 215.3125 101.296875 L 213.996094 101.488281 L 214.132812 102.886719 C 214.628906 107.792969 216.875 112.070312 220.027344 113.933594 C 221.039062 114.535156 221.425781 114.617188 223.207031 114.507812 C 224.988281 114.425781 225.371094 114.316406 226.277344 113.578125 C 227.015625 113 227.480469 112.289062 227.835938 111.246094 C 228.332031 109.820312 228.359375 109.683594 227.894531 107.710938 C 227.644531 106.585938 227.261719 105.023438 227.042969 104.230469 C 226.441406 102.121094 226.46875 100.3125 227.097656 99.84375 C 227.921875 99.214844 229.675781 99.570312 230.441406 100.503906 C 231.511719 101.847656 232.113281 103.269531 232.414062 105.164062 C 232.578125 106.175781 232.769531 107.054688 232.796875 107.109375 C 232.9375 107.21875 234.003906 107.273438 235.238281 107.21875 C 236.222656 107.164062 236.25 107.136719 236.25 106.121094 C 236.222656 102.695312 233.59375 97.84375 230.796875 96.089844 C 229.675781 95.378906 227.835938 95.105469 226.304688 95.378906 Z M 226.304688 95.378906 "/>
<path style=" stroke:none;fill-rule:nonzero;fill:rgb(0%,0%,0%);fill-opacity:1;" d="M 238.582031 112.945312 C 237.980469 113.082031 236.25 113.578125 234.746094 114.042969 C 233.238281 114.507812 230.660156 115.304688 228.988281 115.824219 C 227.34375 116.316406 224.933594 117.03125 223.644531 117.414062 C 222 117.851562 221.289062 118.207031 221.234375 118.535156 C 221.148438 118.921875 222.4375 123.496094 223.398438 126.210938 C 223.5625 126.648438 223.808594 127.527344 223.917969 128.15625 C 224.054688 128.761719 224.273438 129.554688 224.4375 129.9375 C 224.605469 130.292969 224.851562 131.117188 225.015625 131.746094 C 225.179688 132.40625 225.425781 132.925781 225.589844 132.925781 C 225.753906 132.925781 226.496094 132.734375 227.261719 132.488281 L 228.632812 132.019531 L 228.46875 130.980469 C 228.386719 130.40625 228.140625 129.527344 227.921875 129.035156 C 227.699219 128.539062 227.398438 127.582031 227.234375 126.894531 C 226.933594 125.773438 226.632812 124.757812 225.890625 122.320312 C 225.617188 121.441406 225.617188 121.414062 226.742188 121.113281 C 227.371094 120.949219 228.386719 120.675781 228.988281 120.457031 C 230.195312 120.070312 230.496094 120.125 230.496094 120.8125 C 230.496094 121.058594 230.6875 121.632812 230.90625 122.074219 C 231.125 122.484375 231.320312 123.085938 231.320312 123.386719 C 231.320312 123.664062 231.484375 124.238281 231.675781 124.648438 C 231.894531 125.058594 232.195312 126.101562 232.386719 126.949219 L 232.714844 128.539062 L 233.785156 128.539062 C 234.359375 128.539062 235.15625 128.429688 235.539062 128.292969 C 236.195312 128.019531 236.195312 127.992188 235.839844 126.703125 C 235.648438 125.992188 235.347656 125.003906 235.183594 124.566406 C 234.773438 123.304688 233.785156 119.660156 233.785156 119.332031 C 233.785156 119.03125 236.085938 118.207031 237.292969 118.070312 C 237.980469 117.988281 238.171875 118.316406 239.074219 121.414062 C 239.320312 122.238281 239.871094 124.019531 240.253906 125.363281 L 240.992188 127.773438 L 241.84375 127.636719 C 243.351562 127.390625 244.199219 126.921875 244.199219 126.402344 C 244.199219 126.101562 243.898438 124.949219 243.515625 123.800781 C 243.160156 122.675781 242.417969 120.234375 241.871094 118.371094 C 240.554688 113.851562 240.199219 112.808594 239.925781 112.753906 C 239.789062 112.726562 239.183594 112.808594 238.582031 112.945312 Z M 238.582031 112.945312 "/>
<path style=" stroke:none;fill-rule:nonzero;fill:rgb(0%,0%,0%);fill-opacity:1;" d="M 60.871094 113.933594 C 60.40625 114.507812 59.636719 115.878906 59.171875 117.03125 C 58.460938 118.703125 58.296875 119.496094 58.269531 121.277344 C 58.242188 123.140625 58.351562 123.636719 58.898438 124.511719 C 59.609375 125.691406 61.226562 126.621094 62.542969 126.621094 C 64.351562 126.621094 65.558594 125.417969 67.777344 121.386719 C 68.792969 119.550781 69.285156 119.113281 70.027344 119.386719 C 71.394531 119.933594 70.601562 123.414062 68.492188 126.101562 C 68.050781 126.648438 67.695312 127.226562 67.695312 127.390625 C 67.695312 127.554688 68.21875 128.074219 68.847656 128.566406 L 69.972656 129.472656 L 70.902344 128.402344 C 72.820312 126.183594 74.109375 122.566406 73.945312 119.824219 C 73.835938 117.632812 73.148438 116.480469 71.535156 115.660156 C 68.957031 114.34375 67.3125 115.386719 64.847656 119.851562 C 63.667969 121.964844 62.925781 122.621094 62.1875 122.238281 C 61.914062 122.074219 61.613281 121.714844 61.53125 121.386719 C 61.226562 120.484375 61.914062 118.261719 62.925781 116.835938 C 63.449219 116.125 63.859375 115.386719 63.859375 115.25 C 63.859375 115.082031 63.394531 114.480469 62.789062 113.90625 L 61.75 112.890625 Z M 60.871094 113.933594 "/>
<path style=" stroke:none;fill-rule:nonzero;fill:rgb(0%,0%,0%);fill-opacity:1;" d="M 56.101562 130.101562 C 55.089844 132.40625 54.816406 133.636719 54.816406 135.804688 C 54.84375 139.011719 56.40625 141.367188 58.597656 141.476562 C 62.078125 141.613281 62.734375 141.039062 64.132812 136.488281 C 64.734375 134.570312 65.558594 133.199219 66.105469 133.199219 C 66.65625 133.199219 67.421875 134.351562 67.421875 135.171875 C 67.421875 136.40625 66.601562 139.230469 65.96875 140.078125 C 65.695312 140.492188 65.503906 141.039062 65.558594 141.3125 C 65.667969 141.996094 67.75 143.367188 68.136719 143.039062 C 68.300781 142.902344 68.847656 141.914062 69.3125 140.875 C 70.082031 139.230469 70.246094 138.515625 70.355469 136.269531 C 70.546875 132.871094 70.21875 131.636719 68.820312 130.378906 C 65.914062 127.773438 63.121094 129.144531 61.558594 133.886719 C 60.324219 137.613281 59.664062 138.296875 58.515625 137.035156 C 57.855469 136.324219 58.078125 133.5 58.898438 131.910156 C 59.199219 131.28125 59.472656 130.570312 59.472656 130.378906 C 59.472656 129.964844 57.609375 128.539062 57.089844 128.539062 C 56.925781 128.539062 56.488281 129.253906 56.101562 130.101562 Z M 56.101562 130.101562 "/>
<path style=" stroke:none;fill-rule:nonzero;fill:rgb(0%,0%,0%);fill-opacity:1;" d="M 233.648438 133.171875 C 228.988281 134.050781 225.507812 139.09375 225.917969 144.4375 C 226.082031 146.519531 226.578125 148.300781 227.152344 148.878906 C 227.34375 149.070312 227.480469 149.371094 227.480469 149.589844 C 227.480469 150.21875 230.25 152.933594 231.703125 153.699219 C 232.992188 154.359375 233.375 154.414062 236.25 154.441406 C 239.183594 154.441406 239.511719 154.386719 240.855469 153.671875 C 242.609375 152.742188 244.390625 151.015625 245.214844 149.480469 C 245.898438 148.136719 246.667969 145.285156 246.667969 144.027344 C 246.667969 142.601562 245.898438 139.558594 245.160156 138.160156 C 244.308594 136.515625 242.199219 134.460938 240.609375 133.777344 C 239.210938 133.144531 235.457031 132.816406 233.648438 133.171875 Z M 237.839844 137.558594 C 240.554688 138.078125 242.554688 140.492188 242.636719 143.257812 C 242.691406 145.671875 242.390625 146.710938 241.210938 147.945312 C 239.59375 149.644531 238.664062 150.027344 236.085938 150.027344 C 233.976562 150.027344 233.785156 149.972656 232.523438 149.070312 C 230.6875 147.753906 229.8125 145.972656 229.8125 143.613281 C 229.8125 142.164062 229.949219 141.585938 230.578125 140.519531 C 232.003906 138.078125 234.746094 136.953125 237.839844 137.558594 Z M 237.839844 137.558594 "/>
<path style=" stroke:none;fill-rule:nonzero;fill:rgb(0%,0%,0%);fill-opacity:1;" d="M 59.75 144.109375 C 56.871094 144.875 55.335938 146.300781 54.457031 149.015625 C 53.964844 150.519531 53.828125 153.34375 54.238281 153.589844 C 54.347656 153.671875 54.539062 154.222656 54.648438 154.796875 C 54.871094 156.277344 56.734375 158.332031 58.570312 159.15625 C 59.636719 159.621094 60.542969 159.785156 61.914062 159.785156 C 66.078125 159.785156 68.765625 157.429688 69.640625 152.933594 C 70.027344 150.988281 69.640625 148.65625 68.601562 146.601562 C 67.558594 144.519531 67.3125 144.4375 65.96875 145.753906 C 64.847656 146.875 64.847656 146.902344 65.285156 147.644531 C 65.53125 148.082031 65.914062 149.042969 66.132812 149.808594 C 66.519531 151.097656 66.519531 151.34375 66.078125 152.660156 C 65.613281 154.085938 64.488281 155.398438 63.695312 155.398438 C 63.476562 155.398438 63.285156 155.371094 63.285156 155.316406 C 63.257812 155.289062 63.121094 152.660156 62.925781 149.507812 C 62.570312 142.902344 62.816406 143.3125 59.75 144.109375 Z M 60.433594 149.015625 C 60.515625 149.589844 60.707031 150.578125 60.871094 151.207031 C 61.171875 152.605469 61.199219 154.851562 60.871094 155.34375 C 60.597656 155.785156 59.582031 155.5625 58.789062 154.90625 C 57.691406 154.003906 57.28125 153.125 57.28125 151.644531 C 57.28125 150.355469 57.390625 150.109375 58.324219 149.097656 C 59.664062 147.699219 60.214844 147.671875 60.433594 149.015625 Z M 60.433594 149.015625 "/>
<path style=" stroke:none;fill-rule:nonzero;fill:rgb(0%,0%,0%);fill-opacity:1;" d="M 56.488281 162.828125 C 55.828125 162.964844 55.253906 163.101562 55.199219 163.15625 C 54.898438 163.457031 55.910156 165.484375 56.925781 166.554688 C 57.554688 167.265625 58.078125 167.84375 58.019531 167.871094 C 57.992188 167.871094 57.636719 168.035156 57.226562 168.199219 C 56.570312 168.5 56.515625 168.582031 56.761719 169.597656 C 57.171875 171.433594 57.527344 172.117188 58.050781 172.117188 C 58.597656 172.117188 62.40625 171.242188 64.570312 170.609375 C 65.339844 170.390625 66.132812 170.199219 66.351562 170.199219 C 66.574219 170.199219 67.941406 169.925781 69.394531 169.597656 C 72.027344 168.964844 72.082031 168.9375 72.082031 168.171875 C 72.082031 167.351562 71.5625 165.265625 71.257812 164.910156 C 71.175781 164.800781 70.464844 164.882812 69.722656 165.101562 C 68.984375 165.320312 67.09375 165.761719 65.503906 166.089844 C 63.175781 166.554688 62.460938 166.609375 61.804688 166.363281 C 60.625 165.925781 59.199219 164.445312 59.199219 163.703125 C 59.199219 163.265625 58.980469 162.964844 58.488281 162.800781 C 58.105469 162.636719 57.773438 162.527344 57.746094 162.554688 C 57.71875 162.582031 57.144531 162.691406 56.488281 162.828125 Z M 56.488281 162.828125 "/>
<path style=" stroke:none;fill-rule:nonzero;fill:rgb(0%,0%,0%);fill-opacity:1;" d="M 224.382812 165.347656 C 224.136719 166.171875 223.917969 167.019531 223.917969 167.292969 C 223.917969 167.542969 223.78125 167.953125 223.644531 168.226562 C 223.34375 168.71875 221.945312 173.105469 221.261719 175.679688 C 221.039062 176.503906 220.328125 178.285156 219.644531 179.65625 C 218.984375 181 218.4375 182.285156 218.4375 182.480469 C 218.4375 182.699219 218.820312 183.683594 219.285156 184.671875 C 220.765625 187.851562 220.738281 187.6875 219.589844 187.878906 C 219.039062 187.960938 217.722656 188.179688 216.710938 188.34375 L 214.847656 188.644531 L 213.886719 190.261719 C 213.394531 191.167969 212.957031 191.988281 212.957031 192.152344 C 212.957031 192.535156 214.957031 192.453125 218.710938 191.851562 C 220.574219 191.550781 222.136719 191.359375 222.164062 191.386719 C 222.191406 191.414062 222.601562 192.289062 223.097656 193.359375 C 223.5625 194.402344 224.246094 195.90625 224.632812 196.703125 C 224.988281 197.496094 225.398438 198.429688 225.5625 198.8125 C 225.699219 199.222656 225.917969 199.527344 226.054688 199.527344 C 226.164062 199.527344 226.714844 198.703125 227.261719 197.664062 C 228.113281 196.128906 228.222656 195.742188 227.949219 195.277344 C 227.78125 194.976562 227.234375 193.851562 226.769531 192.757812 L 225.890625 190.78125 L 226.742188 190.644531 C 227.234375 190.5625 228.46875 190.398438 229.535156 190.289062 L 231.429688 190.070312 L 232.46875 188.289062 C 233.046875 187.300781 233.511719 186.398438 233.511719 186.261719 C 233.511719 185.960938 229.507812 186.234375 228.523438 186.617188 C 228.140625 186.753906 227.042969 186.917969 226.082031 186.945312 L 224.355469 187.027344 L 223.207031 184.425781 C 222.601562 183 221.808594 181.273438 221.507812 180.558594 C 220.738281 178.914062 220.738281 178.585938 221.535156 178.832031 C 221.863281 178.941406 222.519531 179.078125 222.988281 179.164062 L 223.835938 179.300781 L 224.6875 176.585938 C 225.125 175.105469 225.835938 172.832031 226.25 171.488281 C 226.660156 170.171875 227.097656 169.105469 227.179688 169.105469 C 227.5625 169.105469 231.179688 170.28125 231.402344 170.472656 C 231.59375 170.636719 231.320312 171.679688 229.949219 175.957031 C 228.933594 179.105469 228.933594 179.078125 230.414062 179.738281 C 231.320312 180.121094 231.839844 180.203125 232.058594 180.039062 C 232.222656 179.875 232.769531 178.503906 233.238281 176.96875 C 234.03125 174.394531 234.910156 171.816406 235.046875 171.625 C 235.128906 171.488281 237.730469 172.199219 238.472656 172.558594 C 239.265625 172.96875 239.292969 172.777344 237.867188 177.464844 C 237.566406 178.503906 237.128906 180.011719 236.9375 180.808594 C 236.746094 181.574219 236.5 182.339844 236.417969 182.480469 C 236.25 182.753906 239.183594 184.066406 239.429688 183.820312 C 239.707031 183.546875 241.460938 178.285156 241.460938 177.710938 C 241.460938 177.40625 241.570312 177.050781 241.707031 176.886719 C 241.925781 176.640625 243.925781 170.199219 243.925781 169.734375 C 243.925781 169.515625 242.800781 169.132812 238.855469 168.007812 C 237.8125 167.707031 236.582031 167.320312 236.113281 167.15625 C 235.675781 166.992188 234.113281 166.5 232.6875 166.089844 C 231.265625 165.648438 229.097656 164.992188 227.894531 164.609375 C 226.6875 164.226562 225.507812 163.894531 225.261719 163.894531 C 224.988281 163.894531 224.6875 164.417969 224.382812 165.347656 Z M 224.382812 165.347656 "/>
<path style=" stroke:none;fill-rule:nonzero;fill:rgb(0%,0%,0%);fill-opacity:1;" d="M 61.035156 175.679688 C 58.160156 176.804688 56.761719 178.667969 56.542969 181.710938 C 56.378906 183.628906 56.84375 185.355469 58.351562 188.644531 C 58.789062 189.578125 59.472656 191.167969 59.914062 192.207031 C 60.351562 193.25 60.898438 194.125 61.171875 194.207031 C 61.449219 194.292969 62.132812 194.125 62.679688 193.824219 C 63.257812 193.523438 64.957031 192.757812 66.464844 192.125 C 67.96875 191.496094 69.3125 190.863281 69.476562 190.726562 C 69.613281 190.589844 69.890625 190.480469 70.082031 190.480469 C 70.273438 190.480469 71.339844 190.042969 72.464844 189.523438 C 73.589844 189 74.574219 188.5625 74.65625 188.5625 C 74.820312 188.5625 78.988281 186.644531 79.152344 186.507812 C 79.289062 186.371094 77.507812 182.535156 77.289062 182.535156 C 77.207031 182.535156 76.355469 182.890625 75.425781 183.355469 C 72.355469 184.835938 72.574219 184.917969 71.039062 181.65625 C 69.476562 178.339844 68.105469 176.667969 66.1875 175.792969 C 64.515625 174.996094 62.84375 174.96875 61.035156 175.679688 Z M 65.476562 180.039062 C 66.324219 180.476562 66.710938 180.972656 67.53125 182.644531 C 69.257812 186.234375 69.339844 186.042969 65.804688 187.578125 C 64.132812 188.289062 62.652344 188.808594 62.515625 188.726562 C 61.941406 188.371094 60.296875 184.066406 60.296875 182.972656 C 60.324219 181.984375 61.28125 180.53125 62.242188 180.066406 C 63.503906 179.410156 64.214844 179.410156 65.476562 180.039062 Z M 65.476562 180.039062 "/>
<path style=" stroke:none;fill-rule:nonzero;fill:rgb(0%,0%,0%);fill-opacity:1;" d="M 76.054688 192.015625 C 73.808594 193.742188 70.136719 196.539062 67.914062 198.183594 C 65.667969 199.855469 63.859375 201.308594 63.859375 201.445312 C 63.859375 201.882812 66.078125 204.460938 66.4375 204.460938 C 66.65625 204.460938 67.941406 203.582031 69.3125 202.539062 C 70.710938 201.472656 71.945312 200.621094 72.082031 200.621094 C 72.246094 200.621094 72.355469 201.117188 72.355469 201.691406 C 72.355469 203.773438 73.917969 206.050781 76.300781 207.472656 C 77.808594 208.378906 81.261719 208.40625 82.90625 207.554688 C 87.210938 205.308594 88.992188 200.867188 87.101562 197.195312 C 86.25 195.578125 84.222656 193.605469 83.125 193.332031 C 81.921875 193.03125 81.839844 192.894531 82.496094 192.398438 L 83.125 191.933594 L 81.949219 190.371094 C 81.316406 189.523438 80.660156 188.835938 80.46875 188.863281 C 80.304688 188.863281 78.332031 190.289062 76.054688 192.015625 Z M 82.386719 196.539062 C 83.179688 197.277344 83.867188 198.730469 83.867188 199.71875 C 83.867188 201.007812 82.660156 202.566406 80.796875 203.71875 C 78.90625 204.898438 76.328125 203.691406 75.261719 201.171875 C 74.933594 200.347656 74.933594 200.046875 75.234375 199.140625 C 75.671875 197.910156 76.824219 196.59375 77.972656 196.074219 C 79.234375 195.46875 81.507812 195.714844 82.386719 196.539062 Z M 82.386719 196.539062 "/>
<path style=" stroke:none;fill-rule:nonzero;fill:rgb(0%,0%,0%);fill-opacity:1;" d="M 206.542969 191.03125 C 205.855469 191.769531 205.28125 192.480469 205.28125 192.648438 C 205.28125 192.785156 206.40625 193.851562 207.75 195.03125 C 209.117188 196.210938 210.214844 197.25 210.214844 197.386719 C 210.214844 197.496094 209.667969 197.746094 209.007812 197.910156 C 207.5 198.292969 206.105469 199.417969 205.117188 201.089844 C 204.433594 202.238281 204.351562 202.679688 204.351562 204.734375 C 204.351562 206.625 204.460938 207.28125 204.953125 208.242188 C 205.746094 209.75 207.335938 211.285156 208.898438 212.078125 C 210.460938 212.847656 213.859375 212.929688 215.230469 212.214844 C 217.75 210.925781 219.285156 208.953125 219.480469 206.707031 C 219.617188 205.28125 219.617188 205.253906 220.246094 205.691406 C 220.601562 205.910156 221.039062 206.019531 221.234375 205.9375 C 221.617188 205.800781 223.78125 203.117188 223.617188 203.007812 C 223.234375 202.761719 219.535156 199.609375 217.613281 197.882812 C 216.328125 196.730469 214.957031 195.550781 214.574219 195.25 C 214.160156 194.976562 212.570312 193.578125 211.007812 192.179688 C 209.476562 190.808594 208.105469 189.660156 208.023438 189.660156 C 207.914062 189.660156 207.253906 190.261719 206.542969 191.03125 Z M 214.519531 200.980469 C 216.136719 202.128906 216.65625 203.0625 216.65625 204.789062 C 216.65625 206.132812 216.546875 206.460938 215.832031 207.199219 C 214.984375 208.078125 213.53125 208.84375 212.679688 208.84375 C 212.050781 208.84375 210.488281 208.078125 209.722656 207.363281 C 208.679688 206.460938 207.941406 204.789062 208.132812 203.828125 C 208.761719 200.675781 211.996094 199.25 214.519531 200.980469 Z M 214.519531 200.980469 "/>
<path style=" stroke:none;fill-rule:nonzero;fill:rgb(0%,0%,0%);fill-opacity:1;" d="M 91.707031 208.679688 C 88.390625 212.242188 87.621094 212.679688 85.648438 212.132812 C 84.992188 211.941406 84.222656 211.558594 83.976562 211.285156 C 83.292969 210.515625 82.933594 210.625 81.703125 212.050781 C 80.851562 213.066406 80.6875 213.421875 80.90625 213.722656 C 81.398438 214.296875 83.152344 215.121094 84.386719 215.3125 C 85.484375 215.476562 85.785156 215.777344 85.238281 216.105469 C 84.660156 216.464844 85.019531 217.257812 86.195312 218.273438 C 86.882812 218.847656 87.621094 219.257812 87.8125 219.175781 C 88.003906 219.09375 89.648438 217.421875 91.429688 215.421875 C 93.238281 213.449219 95.433594 211.007812 96.308594 210.050781 L 97.953125 208.242188 L 96.445312 206.925781 C 95.625 206.1875 94.882812 205.582031 94.800781 205.554688 C 94.691406 205.554688 93.292969 206.953125 91.707031 208.679688 Z M 91.707031 208.679688 "/>
<path style=" stroke:none;fill-rule:nonzero;fill:rgb(0%,0%,0%);fill-opacity:1;" d="M 196.757812 209.199219 C 194.265625 210.132812 191.304688 212.929688 190.726562 214.902344 C 190.316406 216.246094 190.507812 216.492188 192.234375 216.574219 C 193.550781 216.65625 193.578125 216.628906 194.320312 215.421875 C 195.632812 213.175781 198.484375 211.886719 200.238281 212.734375 C 200.648438 212.929688 201.035156 213.230469 201.089844 213.421875 C 201.199219 213.722656 198.976562 215.53125 195.851562 217.722656 C 193.824219 219.121094 192.398438 220.382812 192.398438 220.738281 C 192.398438 221.371094 193.550781 222.601562 195.085938 223.5625 C 198.101562 225.507812 201.9375 224.988281 204.707031 222.246094 C 206.597656 220.382812 207.199219 219.011719 207.199219 216.492188 C 207.199219 214.875 207.0625 214.214844 206.570312 213.257812 C 205.800781 211.859375 204.128906 210.078125 202.953125 209.449219 C 201.855469 208.871094 198.046875 208.707031 196.757812 209.199219 Z M 203.554688 216.984375 C 203.855469 219.203125 201.992188 221.179688 199.636719 221.179688 C 198.375 221.179688 197.058594 220.628906 197.058594 220.109375 C 197.058594 219.917969 198.347656 218.875 202.128906 216.078125 C 203.089844 215.367188 203.363281 215.53125 203.554688 216.984375 Z M 203.554688 216.984375 "/>
<path style=" stroke:none;fill-rule:nonzero;fill:rgb(0%,0%,0%);fill-opacity:1;" d="M 99.351562 212.515625 C 95.84375 213.613281 93.570312 216.683594 93.625 220.273438 C 93.652344 223.34375 95.488281 226 98.722656 227.671875 C 100.722656 228.6875 103.929688 228.742188 105.847656 227.808594 C 107.464844 227.015625 109.136719 225.207031 109.765625 223.5625 C 110.398438 221.917969 110.261719 218.191406 109.546875 217.394531 C 109.273438 217.121094 109.082031 216.765625 109.082031 216.628906 C 109.082031 216.246094 106.917969 214.242188 105.792969 213.558594 C 104.640625 212.902344 102.121094 212.132812 101.160156 212.160156 C 100.777344 212.160156 99.953125 212.324219 99.351562 212.515625 Z M 104.996094 217.285156 C 105.410156 217.75 105.902344 218.628906 106.09375 219.257812 C 106.394531 220.246094 106.367188 220.492188 105.765625 221.78125 C 104.203125 225.152344 100.804688 225.753906 98.53125 223.042969 C 97.84375 222.246094 97.789062 222 97.898438 220.410156 C 98.007812 218.710938 98.0625 218.601562 99.324219 217.421875 L 100.613281 216.191406 L 102.421875 216.300781 C 104.011719 216.410156 104.3125 216.519531 104.996094 217.285156 Z M 104.996094 217.285156 "/>
<path style=" stroke:none;fill-rule:nonzero;fill:rgb(0%,0%,0%);fill-opacity:1;" d="M 184.671875 216.820312 C 183.792969 217.257812 183.082031 217.777344 183.082031 217.972656 C 183.082031 218.355469 185.027344 222.300781 185.519531 222.933594 C 185.628906 223.097656 186.015625 224.054688 186.371094 225.042969 L 186.972656 226.824219 L 186.398438 227.976562 C 186.070312 228.632812 185.355469 229.425781 184.726562 229.8125 C 184.121094 230.195312 183.628906 230.578125 183.628906 230.660156 C 183.628906 231.179688 185.109375 233.785156 185.382812 233.785156 C 185.988281 233.785156 188.179688 231.675781 188.5625 230.742188 L 188.945312 229.867188 L 189.496094 230.578125 L 190.070312 231.265625 L 191.660156 230.550781 C 192.8125 230.003906 193.222656 229.675781 193.222656 229.261719 C 193.195312 228.578125 186.890625 216.136719 186.507812 216.078125 C 186.371094 216.050781 185.519531 216.382812 184.671875 216.820312 Z M 184.671875 216.820312 "/>
<path style=" stroke:none;fill-rule:nonzero;fill:rgb(0%,0%,0%);fill-opacity:1;" d="M 115.824219 224.550781 C 111.054688 231.894531 110.011719 233.457031 108.480469 235.757812 C 107.601562 237.074219 106.890625 238.226562 106.890625 238.28125 C 106.890625 238.363281 107.710938 238.664062 108.726562 238.992188 C 110.453125 239.511719 110.5625 239.539062 111.082031 239.074219 C 111.355469 238.800781 111.933594 238.035156 112.316406 237.347656 C 112.699219 236.664062 113.328125 235.675781 113.714844 235.15625 C 114.097656 234.636719 114.5625 233.976562 114.699219 233.730469 C 114.863281 233.484375 115.304688 232.796875 115.6875 232.222656 C 116.070312 231.648438 117.003906 230.25 117.742188 229.125 L 119.085938 227.070312 L 119.25 228.167969 C 119.359375 228.769531 119.523438 231.976562 119.632812 235.292969 C 119.742188 238.609375 119.933594 241.515625 120.042969 241.734375 C 120.320312 242.226562 123.855469 243.242188 124.15625 242.910156 C 124.265625 242.800781 126.046875 240.144531 128.128906 236.992188 C 130.210938 233.867188 131.992188 231.234375 132.105469 231.179688 C 132.242188 231.097656 132.40625 232.113281 132.488281 233.429688 C 132.570312 234.773438 132.789062 237.375 132.925781 239.265625 C 133.089844 241.15625 133.253906 243.378906 133.28125 244.199219 L 133.335938 245.707031 L 134.84375 246.0625 C 135.667969 246.253906 136.652344 246.503906 137.007812 246.585938 L 137.667969 246.75 L 137.503906 244.308594 C 137.421875 242.964844 137.230469 238.773438 137.035156 235.019531 C 136.871094 231.234375 136.652344 227.644531 136.597656 227.015625 L 136.460938 225.835938 L 134.652344 225.289062 C 133.664062 224.988281 132.597656 224.742188 132.269531 224.742188 C 131.800781 224.742188 130.925781 225.863281 128.183594 230.003906 C 126.265625 232.90625 124.566406 235.457031 124.402344 235.621094 C 123.691406 236.527344 123.664062 236.25 123.085938 225.5625 L 122.921875 222.164062 L 121.414062 221.671875 C 120.59375 221.425781 119.46875 221.207031 118.949219 221.207031 C 118.015625 221.207031 117.90625 221.316406 115.824219 224.550781 Z M 115.824219 224.550781 "/>
<path style=" stroke:none;fill-rule:nonzero;fill:rgb(0%,0%,0%);fill-opacity:1;" d="M 171.023438 222.382812 C 168.9375 223.179688 168.664062 223.316406 168.171875 223.890625 C 167.652344 224.464844 167.652344 224.492188 168.691406 225.5625 C 169.679688 226.578125 169.761719 226.605469 170.363281 226.222656 C 171.242188 225.617188 172.613281 225.644531 173.214844 226.277344 C 173.488281 226.550781 174.035156 227.835938 174.449219 229.125 C 174.859375 230.414062 175.296875 231.730469 175.433594 232.085938 C 175.570312 232.441406 175.679688 232.824219 175.679688 232.964844 C 175.679688 233.320312 174.367188 233.949219 173.160156 234.167969 C 172.585938 234.277344 172.117188 234.414062 172.117188 234.46875 C 172.117188 234.605469 173.242188 237.457031 173.324219 237.539062 C 173.351562 237.59375 174.121094 237.347656 174.996094 237.046875 C 176.558594 236.5 176.640625 236.5 176.96875 236.964844 C 177.160156 237.238281 177.464844 237.921875 177.628906 238.5 C 177.847656 239.375 178.011719 239.539062 178.640625 239.539062 C 179.492188 239.539062 181.109375 239.101562 181.710938 238.746094 C 182.039062 238.527344 182.039062 238.28125 181.628906 236.992188 C 181 235.046875 181.027344 234.964844 182.011719 234.746094 C 183.027344 234.523438 183.21875 234.085938 182.808594 232.851562 C 182.367188 231.511719 181.902344 231.207031 180.890625 231.539062 C 180.449219 231.703125 180.011719 231.730469 179.929688 231.59375 C 179.847656 231.457031 179.246094 229.8125 178.585938 227.949219 C 177.296875 224.273438 177.023438 223.726562 175.820312 222.765625 C 174.859375 222.027344 172.421875 221.808594 171.023438 222.382812 Z M 171.023438 222.382812 "/>
<path style=" stroke:none;fill-rule:nonzero;fill:rgb(0%,0%,0%);fill-opacity:1;" d="M 156.085938 225.617188 C 154.386719 226.550781 154.085938 228.414062 155.398438 229.730469 C 156.167969 230.496094 156.386719 230.550781 157.539062 230.414062 C 160.03125 230.140625 160.855469 227.949219 159.128906 226.222656 C 158.140625 225.234375 157.125 225.042969 156.085938 225.617188 Z M 156.085938 225.617188 "/>
</g>
</svg>
